<?xml version="1.0" encoding="utf-8"?>
<!-- Generator: Adobe Illustrator 16.0.3, SVG Export Plug-In . SVG Version: 6.00 Build 0)  -->
<!DOCTYPE svg PUBLIC "-//W3C//DTD SVG 1.1//EN" "http://www.w3.org/Graphics/SVG/1.1/DTD/svg11.dtd">
<svg version="1.1" id="Warstwa_1" xmlns="http://www.w3.org/2000/svg" xmlns:xlink="http://www.w3.org/1999/xlink" x="0px" y="0px"
	 width="472px" height="283px" viewBox="0 0 472 283" enable-background="new 0 0 472 283" xml:space="preserve">
<g>
	<path fill="#D10A11" d="M244.103,178.019v-9.001l0,0c4.947,0,7.033-3.16,7.033-9.896c0-6.795-2.086-9.954-7.033-9.954l0,0v-9.001
		l0,0c11.564,0,18.658,7.272,18.658,18.956C262.761,170.806,255.667,178.019,244.103,178.019L244.103,178.019L244.103,178.019z
		 M305.324,177.304h-11.446l-4.113-21.52l-3.935,21.52h-11.684l-8.584-35.946h11.206l3.937,23.189l4.529-23.189h9.537l4.353,23.189
		l3.815-23.189h10.968L305.324,177.304L305.324,177.304z M319.512,177.304v-35.946h11.743v35.946H319.512L319.512,177.304z
		 M355.158,178.019c-11.564,0-18.599-7.213-18.599-18.897c0-11.742,7.034-18.956,18.301-18.956c10.493,0,16.633,5.246,17.348,14.544
		H361.12c-0.357-3.635-2.385-5.603-6.081-5.603c-4.589,0-6.796,3.338-6.796,10.014c0,6.499,2.445,9.956,7.095,9.956
		c3.517,0,5.723-2.146,6.079-5.961h10.97C371.731,172.535,365.472,178.019,355.158,178.019L355.158,178.019z M378.169,177.064
		v-35.945h28.733v8.584h-17.169v4.769h14.546v8.287h-14.546v5.542h17.883v8.764H378.169z M244.103,140.166v9.001
		c-4.888,0-6.975,3.22-6.975,9.954c0,6.736,2.087,9.896,6.975,9.896v9.001c-11.505,0-18.599-7.213-18.599-18.897
		C225.503,147.438,232.597,140.166,244.103,140.166L244.103,140.166z M191.525,177.064v-2.205l0.775,2.205H191.525L191.525,177.064z
		 M191.525,150.538h9.538v26.526h11.564v-26.526h10.194v-9.419h-31.296V150.538z M191.525,141.119v9.419h-0.775v-9.419H191.525
		L191.525,141.119z M191.525,174.859l-11.922-33.74h-5.842v11.326v-0.119l3.637,12.458h-3.637v7.512h5.723l1.312,4.769h10.73
		V174.859z M139.186,177.064l-8.822-14.426l-2.802,2.981v11.444h-11.505v-35.945h11.505v11.862l10.313-11.862h13.413l-12.817,13.233
		l14.485,22.712H139.186L139.186,177.064z M173.76,141.119v11.326l-3.636,12.339h3.636v7.512h-5.782l-1.37,4.769h-11.327
		l12.638-35.945H173.76z"/>
	<path fill="#1D1D1B" d="M393.37,105.412c7.809,0,12.876,5.186,12.876,13.472s-5.067,13.413-12.876,13.413v-5.365
		c3.935,0,6.14-2.802,6.14-8.048c0-5.246-2.265-8.047-6.14-8.107V105.412z M393.31,132.297c-7.809,0-12.757-5.126-12.757-13.413
		c0-8.346,4.948-13.472,12.757-13.472c0.061,0,0.061,0,0.061,0v5.365c0,0,0,0-0.061,0c-3.875,0-6.08,2.861-6.08,8.107
		c0,5.305,2.205,8.048,6.08,8.048c0.061,0,0.061,0,0.061,0v5.365C393.37,132.297,393.37,132.297,393.31,132.297L393.31,132.297z
		 M354.442,131.582v-5.424c3.221-0.417,4.71-2.743,4.71-7.273c0-4.59-1.489-6.915-4.71-7.333v-5.424
		c7.333,0.119,11.327,4.649,11.327,12.757C365.77,126.932,362.015,131.164,354.442,131.582L354.442,131.582z M369.883,131.641
		v-25.514h6.558v25.514H369.883z M354.442,106.127v5.424c-0.356-0.06-0.773-0.06-1.19-0.06h-3.518v14.784h3.518
		c0.417,0,0.834-0.06,1.19-0.119v5.424c-0.416,0.06-0.833,0.06-1.251,0.06h-10.015v-25.514h10.909
		C354.205,106.127,354.324,106.127,354.442,106.127L354.442,106.127z M327.857,126.932v-5.306h2.802l-2.802-8.644v-6.855h3.754
		l9.002,25.514h-6.975l-1.609-4.709H327.857z M327.857,106.127v6.855l-0.061-0.179l-2.742,8.822h2.803v5.306h-4.352l-1.432,4.709
		h-6.796l9.18-25.514H327.857L327.857,106.127z M301.747,122.044v-5.008h0.536c2.624,0,3.814-0.954,3.814-3.04
		c0-1.908-1.19-2.802-3.635-2.802h-0.716v-5.067h1.371c6.378,0,9.479,2.146,9.479,7.034c0,2.921-1.313,4.888-4.055,6.259
		c2.742,1.073,3.101,2.742,3.279,5.723c0.179,3.16-0.179,4.948,1.072,5.604v0.894h-6.855c-0.774-2.146-0.476-4.411-0.714-6.676
		C305.145,122.938,304.012,122.044,301.747,122.044L301.747,122.044z M301.747,106.127v5.067h-4.353v5.842h4.353v5.008h-4.353v9.597
		h-6.497v-25.514H301.747L301.747,106.127z M152.002,132.058v-5.365c3.935,0,6.2-2.802,6.2-8.048c0-5.246-2.325-8.047-6.2-8.107
		v-5.364c7.869,0,12.876,5.186,12.876,13.472C164.878,126.932,159.871,132.058,152.002,132.058L152.002,132.058z M167.74,131.403
		v-25.514h6.617v19.97h12.339v5.544H167.74L167.74,131.403z M199.215,132.058c-6.676,0-10.134-2.98-10.492-9.121h6.319
		c0.06,2.862,1.669,4.352,4.77,4.352c2.742,0,4.232-0.954,4.232-2.504c0-0.834-0.417-1.49-1.014-1.788
		c-1.55-0.835-4.411-1.312-8.167-2.802c-3.696-1.431-5.604-3.875-5.604-7.094c0-4.769,3.815-7.988,10.194-7.988
		c6.199,0,10.015,3.338,10.015,8.405h-6.14c-0.298-2.384-1.669-3.458-4.292-3.458c-2.206,0-3.577,1.014-3.577,2.325
		c0,1.907,2.027,2.325,6.021,3.636c2.921,0.954,5.067,1.61,6.319,2.623c1.669,1.312,2.503,3.16,2.503,5.365
		C210.302,129.018,206.368,132.058,199.215,132.058L199.215,132.058z M230.63,131.403l-7.213-10.253l-2.206,2.206v8.047h-6.438
		v-25.514h6.438v9.717l9.121-9.717h7.809l-10.313,10.73l10.552,14.784H230.63L230.63,131.403z M240.765,131.403v-25.514h6.557
		v25.514H240.765L240.765,131.403z M253.104,131.403v-25.514h19.374v5.187h-12.816v4.53h11.743v5.067h-11.743v5.484h13.233v5.246
		H253.104z M152.002,105.174v5.364l0,0c-3.934,0-6.14,2.862-6.14,8.107c0,5.306,2.206,8.048,6.14,8.048l0,0v5.365l0,0
		c-7.869,0-12.816-5.126-12.816-13.413C139.186,110.359,144.134,105.174,152.002,105.174L152.002,105.174L152.002,105.174z
		 M126.847,122.282v-5.187h0.417c2.325,0,3.458-0.954,3.458-3.1c0-2.026-1.192-2.98-3.577-2.98h-0.298v-5.127h1.192
		c5.902,0,9.121,2.743,9.121,7.929c0,5.424-3.16,8.464-8.882,8.465H126.847z M126.847,105.889v5.127h-3.934v6.08h3.934v5.187h-3.934
		v9.121h-6.558v-25.514H126.847z"/>
	<path fill="#D9D9D9" d="M246.904,102.192c0.238,0.478,0.477,1.014,0.716,1.55h-0.716V102.192L246.904,102.192z M246.904,180.045
		c0.179,0,0.298,0,0.477-0.059c-0.179,0.357-0.298,0.715-0.477,1.014V180.045L246.904,180.045z M246.904,166.155v-2.146
		c0.716-2.802,1.312-5.603,1.788-8.524c0.179,1.014,0.298,2.206,0.298,3.636c0,2.922-0.417,5.009-1.312,6.261
		C247.5,165.679,247.202,165.918,246.904,166.155L246.904,166.155z M249.766,138.556c-0.06-1.669-0.179-3.338-0.358-5.008h0.061
		v-25.334c0.536,1.371,1.013,2.742,1.49,4.113v21.221h4.353c0.179,2.385,0.296,4.829,0.296,7.333
		C253.878,139.808,251.911,139.033,249.766,138.556z M240.824,91.105c2.265,3.576,4.291,7.213,6.08,11.087v1.55h-5.723
		c-0.119-0.298-0.238-0.536-0.357-0.834V91.105L240.824,91.105z M240.824,180.224c0-0.06,0.059-0.118,0.119-0.237
		c1.013,0.119,2.086,0.178,3.159,0.178c0.954,0,1.907,0,2.802-0.119V181c-1.789,3.815-3.815,7.511-6.08,11.027V180.224
		L240.824,180.224z M246.904,164.01v2.146c-0.239,0.12-0.478,0.239-0.715,0.358C246.427,165.679,246.665,164.845,246.904,164.01
		L246.904,164.01z M240.824,164.189v-11.685c0.596-0.655,1.43-1.013,2.563-1.132C242.851,155.725,242.017,160.016,240.824,164.189
		L240.824,164.189z M240.824,138.198v-4.65h2.742c0.18,1.491,0.238,2.921,0.298,4.471
		C242.851,138.02,241.777,138.079,240.824,138.198z M235.876,84.13c1.789,2.266,3.398,4.59,4.948,6.975v11.803
		c-1.49-2.98-3.1-5.901-4.948-8.703V84.13L235.876,84.13z M235.876,188.986c1.848-2.801,3.458-5.722,4.948-8.763v11.804
		c-1.55,2.445-3.16,4.769-4.948,7.034V188.986L235.876,188.986z M240.824,133.548v4.65c-0.955,0.119-1.848,0.239-2.683,0.478
		c-0.06-1.729-0.179-3.458-0.357-5.127H240.824L240.824,133.548z M240.824,152.505v11.685c-0.12,0.357-0.238,0.715-0.358,1.072
		c-0.835-1.252-1.251-3.278-1.251-6.141c0-2.92,0.416-5.007,1.311-6.259C240.586,152.744,240.704,152.624,240.824,152.505
		L240.824,152.505z M235.876,122.938v-11.625l1.669-1.728c0.357,0.953,0.775,1.967,1.074,2.92v15.559l-2.266-3.279
		C236.174,124.189,236.055,123.593,235.876,122.938z M234.147,81.984c0.596,0.715,1.192,1.431,1.729,2.146v10.075
		c-0.536-0.894-1.133-1.788-1.729-2.623V81.984L234.147,81.984z M234.147,191.609c0.596-0.833,1.192-1.728,1.729-2.623v10.075
		c-0.536,0.716-1.133,1.431-1.729,2.146V191.609L234.147,191.609z M235.876,111.313v11.625c-0.477-1.967-1.073-3.934-1.729-5.901
		v-3.934L235.876,111.313L235.876,111.313z M234.147,180.522v-2.384c0.357,0.118,0.655,0.297,1.013,0.417
		C234.863,179.212,234.505,179.866,234.147,180.522L234.147,180.522z M234.147,103.743v-1.132c0.179,0.358,0.357,0.715,0.596,1.132
		H234.147z M228.604,75.904c1.908,1.908,3.755,3.935,5.544,6.081v9.598c-1.729-2.504-3.577-4.828-5.544-7.094V75.904L228.604,75.904
		z M228.604,198.704c1.967-2.266,3.815-4.65,5.544-7.095v9.598c-1.789,2.087-3.636,4.114-5.544,6.081V198.704L228.604,198.704z
		 M234.147,102.61v1.132h-4.769l-0.656,0.656l-0.119,0.119v-10.67C230.63,96.649,232.479,99.57,234.147,102.61L234.147,102.61z
		 M234.147,113.102v3.934c-0.357-0.954-0.656-1.907-1.073-2.801L234.147,113.102L234.147,113.102z M234.147,178.139v2.384
		c-1.669,3.04-3.518,6.021-5.544,8.822v-10.849c0.536-0.955,1.073-1.907,1.55-2.921
		C231.346,176.589,232.657,177.422,234.147,178.139L234.147,178.139z M228.604,144.1v-11.803l0.238,0.358l0.656,0.894h2.384
		c0.297,2.444,0.477,4.948,0.477,7.511c-1.252,0.715-2.385,1.669-3.398,2.683C228.842,143.861,228.723,143.981,228.604,144.1z
		 M225.444,72.864c1.073,0.954,2.146,1.968,3.16,3.04v8.584c-1.014-1.192-2.087-2.384-3.16-3.457V72.864L225.444,72.864z
		 M225.444,202.162c1.073-1.133,2.146-2.266,3.16-3.458v8.584c-1.014,1.014-2.087,2.026-3.16,3.04V202.162L225.444,202.162z
		 M228.604,93.848v10.67l-0.06,0.06c-0.954-1.729-1.968-3.397-3.1-5.066v-9.717C226.576,91.105,227.59,92.477,228.604,93.848
		L228.604,93.848z M228.604,132.297V144.1c-0.895,0.954-1.669,2.027-2.325,3.159c0.179-1.907,0.238-3.755,0.238-5.663
		c0-3.994-0.357-7.929-1.073-11.744v-2.026L228.604,132.297L228.604,132.297z M228.604,178.496v10.849
		c-1.014,1.371-2.027,2.742-3.16,4.054v-9.775C226.576,181.952,227.649,180.284,228.604,178.496L228.604,178.496z M225.444,171.938
		v-2.503c0.239,0.357,0.417,0.774,0.656,1.191C225.861,171.044,225.683,171.461,225.444,171.938z M223.834,71.434
		c0.537,0.477,1.073,0.953,1.609,1.43v8.167c-0.536-0.597-1.073-1.133-1.609-1.669V71.434L223.834,71.434z M223.834,203.771
		c0.537-0.478,1.073-1.073,1.609-1.609v8.166c-0.536,0.478-1.073,0.954-1.609,1.431V203.771L223.834,203.771z M225.444,89.794v9.717
		c-0.477-0.775-1.013-1.55-1.609-2.265v-9.359C224.431,88.482,224.908,89.138,225.444,89.794L225.444,89.794z M225.444,127.826
		v2.026c-0.179-0.954-0.357-1.967-0.596-2.92L225.444,127.826L225.444,127.826z M225.444,169.436v2.503
		c-0.477,1.014-1.013,2.086-1.609,3.1v-10.551C224.192,166.275,224.729,167.885,225.444,169.436L225.444,169.436z M225.444,183.623
		v9.775c-0.536,0.655-1.073,1.252-1.609,1.908v-9.359C224.431,185.173,224.967,184.396,225.444,183.623L225.444,183.623z
		 M223.834,109.585v-1.431c0.179,0.299,0.357,0.597,0.537,0.894L223.834,109.585z M217.456,66.307
		c2.206,1.609,4.352,3.338,6.378,5.126v7.928c-2.027-1.967-4.173-3.934-6.378-5.723V66.307L217.456,66.307z M217.456,209.553
		c2.206-1.848,4.352-3.755,6.378-5.781v7.987c-2.027,1.789-4.173,3.517-6.378,5.127V209.553L217.456,209.553z M223.834,87.886v9.359
		c-1.968-2.743-4.053-5.306-6.378-7.75v-8.167C219.721,83.416,221.867,85.561,223.834,87.886L223.834,87.886z M223.834,108.154
		v1.431l-0.477,0.537V107.2C223.536,107.499,223.716,107.796,223.834,108.154L223.834,108.154z M223.834,164.487v10.551
		c-1.848,3.397-3.994,6.677-6.378,9.717v-10.253c2.444-4.114,4.471-8.524,5.961-13.115
		C223.536,162.461,223.656,163.474,223.834,164.487L223.834,164.487z M223.834,185.947v9.359c-1.968,2.265-4.113,4.471-6.378,6.558
		v-8.168C219.781,191.252,221.867,188.689,223.834,185.947L223.834,185.947z M217.456,160.851v-8.167h2.206
		C219.125,155.485,218.35,158.169,217.456,160.851L217.456,160.851z M217.456,138.973v-5.425h2.683
		c0.238,1.789,0.417,3.577,0.536,5.425H217.456L217.456,138.973z M217.456,103.743v-5.305c1.312,1.669,2.623,3.458,3.755,5.305
		H217.456z M210.362,61.538c2.444,1.49,4.77,3.04,7.094,4.769v7.332c-2.266-1.848-4.65-3.577-7.094-5.186V61.538L210.362,61.538z
		 M210.362,214.739c2.444-1.609,4.829-3.338,7.094-5.187v7.333c-2.325,1.669-4.65,3.278-7.094,4.71V214.739L210.362,214.739z
		 M217.456,81.329v8.167c-2.206-2.325-4.59-4.53-7.094-6.617v-7.332C212.806,77.334,215.19,79.242,217.456,81.329L217.456,81.329z
		 M217.456,98.438v5.305h-3.278c-1.192-1.669-2.504-3.219-3.816-4.769v-8.346C212.925,93.072,215.25,95.635,217.456,98.438
		L217.456,98.438z M217.456,133.548v5.425h-2.623c-0.119-1.848-0.298-3.636-0.596-5.425H217.456L217.456,133.548z M217.456,152.684
		v8.167c-0.775,2.146-1.669,4.292-2.683,6.319v-14.486H217.456L217.456,152.684z M217.456,174.502v10.253
		c-2.206,2.802-4.531,5.365-7.094,7.81v-8.405c1.372-1.55,2.742-3.219,3.995-4.947h0.417v-0.656
		C215.727,177.243,216.622,175.873,217.456,174.502L217.456,174.502z M217.456,193.696v8.168c-2.266,2.026-4.65,3.994-7.094,5.781
		v-7.332C212.866,198.227,215.25,196.021,217.456,193.696L217.456,193.696z M210.362,118.109v-2.444h1.252v-2.146
		c0-1.907-0.477-3.636-1.252-5.066v-0.06c0.775,1.192,1.55,2.384,2.266,3.577v14.366c-0.06-0.238-0.179-0.536-0.238-0.834
		c0.06-0.477,0.06-0.954,0.06-1.49c0-1.371-0.298-2.742-0.835-3.935C211.256,119.361,210.839,118.706,210.362,118.109z
		 M162.435,48.304c17.526,0,33.919,4.829,47.927,13.234v6.915c-13.77-9.061-30.282-14.307-47.927-14.307V48.304L162.435,48.304z
		 M162.435,229.047c17.645,0,34.157-5.246,47.927-14.308v6.856c-14.008,8.405-30.401,13.292-47.927,13.292V229.047L162.435,229.047z
		 M210.362,75.547c-13.472-9.777-30.043-15.559-47.927-15.559v5.842c18.182,0,34.813,6.379,47.927,17.049V75.547L210.362,75.547z
		 M210.362,90.628v8.346c-11.743-13.174-28.911-21.52-47.927-21.52v-5.842C180.974,71.612,197.844,78.885,210.362,90.628
		L210.362,90.628z M210.362,108.393v0.06c-0.06-0.06-0.06-0.12-0.119-0.179C210.302,108.333,210.302,108.393,210.362,108.393
		L210.362,108.393z M210.362,115.666v2.444c-0.357-0.417-0.775-0.775-1.192-1.133h-0.06c-0.179-0.179-0.417-0.357-0.596-0.477
		c-0.179-0.238-0.298-0.537-0.477-0.834H210.362L210.362,115.666z M210.362,184.159v8.405
		c-12.518,11.743-29.388,18.956-47.927,18.956v-5.782C181.451,205.738,198.619,197.393,210.362,184.159L210.362,184.159z
		 M210.362,200.313c-13.114,10.671-29.746,17.049-47.927,17.049v5.842c17.884,0,34.455-5.782,47.927-15.559V200.313L210.362,200.313
		z M162.435,199.896c17.824,0,33.8-8.048,44.47-20.685h-7.929c-9.478,9.18-22.354,14.842-36.542,14.842V199.896L162.435,199.896z
		 M162.435,89.138c13.711,0,26.229,5.246,35.529,13.89c0.477,0,1.013-0.06,1.49-0.06c3.576,0,6.557,1.013,8.643,2.801
		c0.417,0.298,0.775,0.656,1.073,1.014c-10.611-14.247-27.6-23.487-46.735-23.487V89.138z M162.435,48.304L162.435,48.304v5.842l0,0
		c-20.089,0-38.509,6.736-53.292,18.063v-7.213C124.224,54.504,142.583,48.304,162.435,48.304L162.435,48.304z M109.142,210.925
		c14.783,11.386,33.204,18.122,53.292,18.122l0,0v5.841l0,0c-19.851,0-38.211-6.199-53.292-16.69V210.925L109.142,210.925z
		 M162.435,59.988L162.435,59.988c-20.387,0-38.986,7.452-53.292,19.732v7.928c13.71-13.473,32.488-21.818,53.292-21.818l0,0V59.988
		L162.435,59.988z M162.435,71.612L162.435,71.612c-21.341,0-40.477,9.598-53.292,24.62v9.597
		c11.505-17.108,31.058-28.375,53.292-28.375l0,0V71.612L162.435,71.612z M162.435,83.296v5.842l0,0
		c-14.128,0-26.885,5.543-36.303,14.604h-8.047C128.813,91.225,144.67,83.296,162.435,83.296L162.435,83.296L162.435,83.296z
		 M162.435,194.054v5.843l0,0c-17.883,0-33.859-8.048-44.53-20.685h7.928C135.311,188.392,148.188,194.054,162.435,194.054
		L162.435,194.054L162.435,194.054z M162.435,205.738L162.435,205.738c-22.235,0-41.788-11.266-53.292-28.435v9.657
		c12.816,15.022,31.952,24.56,53.292,24.56l0,0V205.738L162.435,205.738z M162.435,217.362L162.435,217.362
		c-20.805,0-39.582-8.345-53.292-21.877v7.928c14.307,12.34,32.905,19.791,53.292,19.791l0,0V217.362L162.435,217.362z
		 M109.142,165.321v-47.45c1.43-3.16,3.1-6.2,5.067-9.061v12.041c-2.742,6.379-4.292,13.354-4.292,20.745
		c0,7.093,1.431,13.889,3.994,20.029v12.341C112.123,171.224,110.513,168.361,109.142,165.321z M109.142,72.208
		c-20.805,16.035-34.158,41.132-34.158,69.388c0,28.256,13.353,53.352,34.158,69.329v7.272c-24.203-16.87-40-44.888-40-76.601
		s15.797-59.731,40-76.601V72.208L109.142,72.208z M109.142,79.72c-17.347,14.962-28.375,37.138-28.375,61.876
		c0,24.739,11.028,46.855,28.375,61.817v-7.928c-13.89-13.711-22.534-32.787-22.534-53.889c0-21.103,8.644-40.178,22.534-53.948
		V79.72L109.142,79.72z M109.142,96.232C98.71,108.453,92.45,124.309,92.45,141.596c0,17.288,6.26,33.144,16.692,45.365v-9.657
		c-6.855-10.193-10.85-22.474-10.85-35.708c0-13.233,3.994-25.514,10.85-35.767V96.232L109.142,96.232z M109.142,117.871
		c-3.219,7.212-5.007,15.26-5.007,23.725c0,8.464,1.788,16.454,5.007,23.725V117.871z"/>
</g>
</svg>
