<?xml version="1.0" encoding="utf-8"?>
<!-- Generator: Adobe Illustrator 16.0.3, SVG Export Plug-In . SVG Version: 6.00 Build 0)  -->
<!DOCTYPE svg PUBLIC "-//W3C//DTD SVG 1.1//EN" "http://www.w3.org/Graphics/SVG/1.1/DTD/svg11.dtd">
<svg version="1.1" xmlns="http://www.w3.org/2000/svg" xmlns:xlink="http://www.w3.org/1999/xlink" x="0px" y="0px"
	 width="283.46px" height="283.46px" viewBox="0 0 283.46 283.46" enable-background="new 0 0 283.46 283.46" xml:space="preserve">
<g id="Warstwa_2">
</g>
<g id="Warstwa_1">
	<path fill-rule="evenodd" clip-rule="evenodd" d="M204.703,36.05c0.173,0.042,0.347,0.116,0.521,0.12
		c3.725,0.089,7.301,1.005,10.891,1.891c1.92,0.473,3.63,1.423,5.445,2.128c1.279,0.497,2.603,0.923,3.799,1.579
		c2.189,1.201,4.335,2.495,6.43,3.856c1.149,0.747,2.226,1.64,3.216,2.592c2.718,2.615,5.428,5.242,8.023,7.977
		c1.162,1.226,2.073,2.698,3.044,4.097c1.632,2.353,2.999,4.861,4.39,7.363c1.415,2.547,2.438,5.254,3.636,7.889
		c0.297,0.654,0.435,1.381,0.647,2.074c0.666,2.182,1.431,4.34,1.978,6.551c0.667,2.698,1.417,5.382,1.637,8.181
		c0.128,1.618,0.5,3.214,0.728,4.825c0.186,1.325,0.369,2.655,0.464,3.989c0.137,1.942,0.255,3.89,0.268,5.835
		c0.016,2.714-0.063,5.428-0.123,8.142c-0.058,2.608-0.068,5.222-0.241,7.823c-0.148,2.237-0.484,4.463-0.764,6.691
		c-0.251,2.01-0.482,4.024-0.83,6.019c-0.235,1.353-0.773,2.653-0.972,4.008c-0.485,3.302-1.157,6.563-2.033,9.776
		c-0.742,2.721-1.59,5.42-2.542,8.077c-1.28,3.577-2.67,7.116-4.086,10.646c-0.524,1.304-1.254,2.529-1.897,3.784
		c-0.299,0.581-0.639,1.141-0.924,1.729c-1.458,3.007-3.189,5.848-5.129,8.566c-0.231,0.324-0.447,0.663-0.643,1.01
		c-1.454,2.588-2.934,5.163-4.342,7.776c-1.649,3.061-3.387,6.078-4.6,9.357c-0.288,0.776-0.725,1.5-1.089,2.248
		c-0.126,0.26-0.247,0.521-0.364,0.785c-0.468,1.055-0.821,2.184-1.427,3.151c-0.756,1.209-1.284,2.507-1.903,3.773
		c-0.477,0.97-1.107,1.866-1.672,2.795c-1.301,2.137-2.583,4.284-3.916,6.399c-0.383,0.604-0.916,1.115-1.377,1.672
		c-1.6,1.922-3.177,3.859-4.806,5.754c-0.515,0.6-1.135,1.117-1.748,1.619c-1.4,1.148-2.766,2.354-4.261,3.365
		c-1.551,1.05-3.227,1.918-4.871,2.823c-0.819,0.452-1.666,0.883-2.547,1.191c-1.566,0.548-3.159,1.029-4.76,1.477
		c-1.107,0.311-2.242,0.52-3.37,0.762c-0.281,0.06-0.574,0.072-0.861,0.094c-0.9,0.067-1.814,0.057-2.7,0.211
		c-1.308,0.228-2.576-0.034-3.866-0.095c-2.399-0.111-4.551-1.14-6.832-1.673c-1.306-0.306-2.512-1.074-3.738-1.682
		c-0.778-0.385-1.502-0.879-2.271-1.287c-2.132-1.135-3.717-2.89-5.218-4.709c-1.153-1.397-2.193-2.89-3.248-4.365
		c-1.255-1.752-2.173-3.657-2.767-5.749c-0.773-2.722-1.628-5.411-1.833-8.26c-0.186-2.557,0.112-5.07,0.483-7.586
		c0.143-0.965,0.277-1.933,0.443-2.894c0.313-1.804,0.981-3.498,1.841-5.092c0.543-1.008,1.336-1.884,2.029-2.812
		c0.26-0.347,0.564-0.66,0.825-1.005c1.422-1.893,0.942-4.331-1.073-5.507c-0.377-0.22-0.764-0.423-1.122-0.667
		c-0.585-0.397-0.649-0.807-0.178-1.325c0.313-0.344,0.685-0.637,1.047-0.93c2.166-1.752,1.979-3.905,1.012-5.631
		c-0.526-0.94-1.176-1.776-2.18-2.358c-0.795-0.461-1.486-1.172-2.084-1.888c-1.14-1.36-1.24-2.987-0.839-4.64
		c0.445-1.827,1.469-3.375,2.564-4.87c0.618-0.844,1.25-1.659,2.195-2.203c0.52-0.3,0.894-0.839,1.376-1.215
		c1.14-0.89,2.277-1.783,3.465-2.604c1.645-1.135,2.982-2.459,3.713-4.397c0.889-2.362,0.628-4.61-0.233-6.89
		c-0.808-2.132-1.532-4.298-2.337-6.432c-0.409-1.083-0.935-2.121-1.374-3.193c-2.037-4.964-4.064-9.93-6.09-14.897
		c-0.85-2.081-1.709-4.158-2.515-6.256c-0.388-1.012-0.733-2.052-0.976-3.108c-1.032-4.524-2.647-8.888-3.573-13.446
		c-0.876-4.31-1.623-8.626-1.761-13.029c-0.044-1.451-0.125-2.909-0.034-4.354c0.143-2.31,0.425-4.611,0.627-6.917
		c0.216-2.44,0.931-4.743,1.799-7.021c0.772-2.029,1.27-4.164,2.401-6.054c1.545-2.581,2.866-5.306,4.874-7.587
		c1.056-1.198,2.188-2.333,3.195-3.569c2.101-2.577,4.837-4.362,7.529-6.209c2.764-1.895,5.744-3.374,8.883-4.532
		c0.504-0.186,1.054-0.237,1.574-0.385c1.322-0.377,2.638-0.774,3.957-1.162c4.019-1.182,8.094-1.951,12.312-1.802
		c0.859,0.03,1.724-0.121,2.587-0.188C203.976,36.05,204.339,36.05,204.703,36.05z M204.636,189.108
		c1.188,0.699,2.183,1.456,3.299,1.907c1.988,0.802,4.094,0.95,6.194,0.45c2.263-0.54,4.271-1.537,5.743-3.437
		c1.901-2.449,3.243-5.229,4.684-7.947c0.829-1.565,1.5-3.216,2.282-4.807c1.037-2.11,2.119-4.2,3.174-6.302
		c0.486-0.972,0.938-1.96,1.438-2.924c0.981-1.896,2.051-3.749,2.966-5.677c1.489-3.141,2.948-6.301,4.294-9.505
		c0.783-1.865,1.344-3.827,1.962-5.76c0.376-1.171,0.658-2.37,1.007-3.552c0.244-0.833,0.582-1.643,0.782-2.484
		c0.309-1.303,0.538-2.625,0.795-3.939c0.382-1.956,0.879-3.899,1.11-5.873c0.379-3.243,0.594-6.505,0.858-9.762
		c0.114-1.408,0.279-2.823,0.243-4.23c-0.086-3.334-0.243-6.67-0.44-10c-0.125-2.099-0.286-4.204-0.59-6.283
		c-0.396-2.721-0.911-5.426-1.446-8.124c-0.595-2.995-1.536-5.889-2.862-8.642c-0.753-1.563-1.55-3.107-2.398-4.619
		c-1.028-1.831-2.069-3.659-3.222-5.412c-1.113-1.695-2.215-3.446-3.608-4.896c-2.104-2.188-4.24-4.367-6.655-6.243
		c-2.035-1.581-4.045-3.197-6.41-4.266c-2.242-1.014-4.506-1.98-6.778-2.927c-0.931-0.388-1.883-0.81-2.865-0.97
		c-2.463-0.402-4.948-0.674-7.426-0.975c-0.754-0.091-1.529-0.213-2.275-0.134c-2.48,0.263-4.968,0.532-7.39,1.165
		c-3.277,0.855-6.296,2.278-9.226,3.986c-2.901,1.691-5.392,3.753-7.279,6.532c-0.939,1.38-1.904,2.75-2.325,4.396
		c-0.104,0.402-0.118,0.858-0.044,1.267c0.097,0.534,0.924,0.792,1.286,0.383c0.497-0.563,0.895-1.215,1.317-1.84
		c0.277-0.409,0.499-0.857,0.793-1.252c0.216-0.288,0.53-0.497,0.764-0.772c2.313-2.717,5.188-4.739,8.183-6.612
		c0.614-0.384,1.225-0.802,1.891-1.069c1.442-0.576,2.902-1.123,4.388-1.568c1.175-0.354,2.403-0.521,3.601-0.804
		c3.784-0.893,7.549-0.747,11.307,0.154c0.809,0.194,1.614,0.41,2.423,0.607c2.937,0.715,5.695,1.863,8.36,3.285
		c2.23,1.188,4.146,2.796,6.132,4.315c2.195,1.681,4.164,3.598,5.992,5.679c1.539,1.754,2.824,3.68,4.11,5.61
		c1.469,2.206,2.891,4.463,3.829,6.944c1.318,3.486,2.816,6.901,3.721,10.551c0.943,3.813,1.672,7.639,1.844,11.557
		c0.122,2.79,0.111,5.585,0.185,8.377c0.13,4.973,0.064,9.941-0.618,14.874c-0.407,2.938-0.907,5.872-1.533,8.77
		c-1.035,4.794-2.598,9.432-4.455,13.969c-1.701,4.154-3.474,8.28-5.478,12.304c-0.468,0.939-0.893,1.903-1.387,2.827
		c-0.82,1.531-1.75,3.007-2.511,4.565c-1.427,2.927-2.714,5.922-4.161,8.838c-0.803,1.618-1.814,3.132-2.723,4.697
		c-0.711,1.227-1.528,2.361-2.493,3.414c-0.915,1-1.991,1.532-3.306,1.67c-0.289,0.029-0.577,0.066-0.867,0.097
		c-1.431,0.144-2.831,0.033-4.093-0.714c-1.271-0.754-2.242-1.732-2.129-3.383c0.021-0.286-0.054-0.577-0.07-0.868
		c-0.087-1.698-0.204-3.396-0.237-5.098c-0.015-0.705,0.151-1.411,0.246-2.213c1.131-0.051,2.139-0.107,3.148-0.141
		c0.689-0.022,1.147-0.472,1.138-1.16c-0.008-0.588-0.369-1.155-0.969-1.297c-0.515-0.122-1.064-0.108-1.599-0.127
		c-0.527-0.02-1.056-0.006-1.691-0.006c0-0.545-0.001-1.011,0-1.474c0.005-1.375,0.188-2.759-0.28-4.104
		c-0.234-0.67-0.485-0.892-1.064-0.887c-0.628,0.009-1.036,0.297-1.168,0.922c-0.098,0.458-0.14,0.935-0.149,1.403
		c-0.023,1.196-0.006,2.392-0.027,3.587c-0.003,0.2-0.114,0.397-0.188,0.638c-0.936,0.071-1.836,0.164-2.739,0.202
		c-0.611,0.026-0.9,0.416-1.122,0.884c-0.211,0.443,0.07,0.807,0.371,1.04c0.322,0.253,0.733,0.484,1.129,0.527
		c0.74,0.083,1.498,0.023,2.3,0.023c0,0.35,0.009,0.561-0.002,0.771c-0.055,1.16-0.112,2.319-0.175,3.479
		c-0.094,1.771-0.268,3.541-0.258,5.311c0.006,1.15-0.573,1.747-1.486,2.159c-0.522,0.238-1.08,0.417-1.641,0.55
		c-1.325,0.314-2.17-0.201-2.291-1.562c-0.12-1.322-0.131-2.674,0.008-3.994c0.103-0.962-0.208-1.706-0.682-2.441
		c-0.235-0.367-0.573-0.725-1.072-0.585c-0.493,0.138-0.946,0.395-1.088,0.956c-0.067,0.261-0.104,0.529-0.175,0.901
		c-2.296-1.461-4.47-1.254-6.44,0.29c-2.022,1.586-2.566,3.769-1.927,6.19c-0.608,0.269-1.097,0.502-1.598,0.704
		c-0.504,0.201-1.016,0.384-1.533,0.548c-1.596,0.508-2.587-0.193-2.768-1.876c-0.293-2.73-0.002-5.447,0.311-8.141
		c0.425-3.65,0.574-7.292,0.403-10.955c-0.044-0.951-0.339-1.253-1.224-1.287c-0.86-0.034-1.307,0.298-1.4,1.145
		c-0.188,1.69-0.399,3.385-0.468,5.084c-0.042,1.065-0.175,2.095-0.479,3.105c-0.597,1.98-1.43,3.819-3.348,4.896
		c-0.883,0.498-1.778,0.971-2.688,1.413c-0.37,0.18-0.725,0.315-0.785,0.891c0.54,0.103,1.063,0.307,1.572,0.277
		c1.411-0.084,2.632-0.725,3.734-1.566c0.56-0.426,1.045-0.949,1.721-1.574c0,0.366,0.004,0.529-0.002,0.691
		c-0.065,2.024-0.336,4.036-0.222,6.077c0.086,1.529,0.57,2.827,1.561,3.956c0.21,0.239,0.466,0.529,0.75,0.6
		c1.706,0.43,3.427,0.729,5.07-0.236c0.869-0.511,1.724-1.049,2.611-1.592c1.263,1.179,2.657,1.763,4.452,1.353
		c1.755-0.403,2.785-1.486,3.491-3.183c0.332,0.486,0.575,0.881,0.854,1.247c0.766,1.008,1.67,1.701,3.056,1.415
		C201.411,191.065,203.221,190.395,204.636,189.108z M167.863,101.153c-0.068,0.014-0.139,0.029-0.209,0.044
		c0.239,0.976,0.418,1.971,0.73,2.923c0.895,2.726,2.508,4.954,4.813,6.672c1.994,1.487,4.331,2.146,6.7,2.677
		c0.718,0.162,1.501,0.05,2.254,0.037c0.683-0.011,1.365-0.048,2.047-0.095c0.792-0.055,1.637,0.022,2.363-0.231
		c1.565-0.546,3.152-1.125,4.587-1.945c3.139-1.795,5.093-4.661,6.591-7.871c0.677-1.445,0.774-3.019,0.885-4.563
		c0.086-1.21,0.005-2.451-0.16-3.657c-0.298-2.185-1.243-4.151-2.333-6.042c-2.031-3.526-5.071-5.686-9.044-6.526
		c-0.597-0.126-1.236-0.051-1.836-0.169c-2.692-0.534-5.301-0.07-7.756,0.948c-2.351,0.975-4.39,2.483-6.006,4.524
		c-1.622,2.049-2.733,4.316-3.441,6.831c-0.424,1.5-0.478,2.996-0.416,4.517C167.66,99.872,167.784,100.511,167.863,101.153z"/>
	<path fill-rule="evenodd" clip-rule="evenodd" d="M133.82,103.862c-1.123,0.417-2.151,0.855-3.214,1.176
		c-0.788,0.237-1.618,0.42-2.437,0.456c-2.945,0.128-5.435-1.02-7.633-2.897c-0.137-0.117-0.279-0.241-0.378-0.389
		c-2.264-3.38-3.456-6.926-1.849-10.977c0.617-1.557,1.244-3.079,2.309-4.405c1.172-1.46,2.668-2.387,4.361-3.128
		c1.841-0.805,3.737-1.149,5.701-0.894c2.985,0.387,5.322,1.821,6.997,4.402c1.721,2.654,2.115,5.585,2.13,8.625
		c0.008,1.888-0.038,3.775-0.096,5.662c-0.035,1.122-0.18,2.24-0.211,3.361c-0.083,3.012-0.058,6.029-0.217,9.038
		c-0.13,2.463-0.446,4.935-1.428,7.225c-1.019,2.376-2.496,4.397-4.892,5.634c-1.405,0.727-2.887,0.805-4.351,0.581
		c-1.933-0.295-3.858-0.756-5.327-2.225c-0.278-0.279-0.51-0.603-0.789-0.881c-0.547-0.546-0.548-1.119-0.192-1.773
		c0.35-0.642,0.841-1.028,1.576-0.909c1.104,0.179,2.199,0.417,3.295,0.642c2.149,0.442,4.292-0.083,5.268-2.032
		c1.064-2.125,1.347-4.357,1.423-6.628c0.103-3.078,0.026-6.16,0.022-9.24C133.888,104.177,133.855,104.07,133.82,103.862z
		 M134.101,94.044c-0.179-0.849-0.324-1.931-0.642-2.961c-0.501-1.623-3.041-2.747-4.831-2.575c-2.771,0.265-5.258,3.01-5.54,5.367
		c-0.245,2.044,0.255,4.027,1.638,5.585c0.915,1.032,2.143,1.655,3.684,1.401c1.207-0.2,2.169-0.788,3.073-1.521
		C133.087,98.039,133.878,96.309,134.101,94.044z"/>
	<path fill-rule="evenodd" clip-rule="evenodd" d="M37.394,236.556c2.427-0.063,4.855-0.179,7.283-0.179
		c4.281,0,8.562,0.08,12.842,0.104c1.015,0.005,2.029-0.106,3.044-0.132c1.413-0.036,2.826-0.047,4.238-0.055
		c1.845-0.009,3.688-0.003,5.533-0.003c0.182-0.002,0.363-0.014,0.544-0.017c1.375-0.021,2.751-0.058,4.125-0.059
		c3.048-0.003,6.097,0.043,9.145,0.005c1.338-0.016,2.675-0.269,4.013-0.27c2.098-0.002,4.196,0.151,6.295,0.181
		c1.23,0.02,2.461-0.091,3.693-0.108c1.779-0.025,3.559-0.004,5.337-0.036c1.234-0.021,2.466-0.148,3.698-0.148
		c3.008,0,6.016,0.048,9.024,0.077c0.146,0.001,0.298,0.048,0.434,0.018c2.486-0.562,4.978,0.164,7.484-0.068
		c2.591-0.239,5.219-0.185,7.827-0.106c4.278,0.125,8.554-0.115,12.83,0.001c3.08,0.085,6.162,0.132,9.245,0.198
		c1.058,0.021,1.481,0.709,1.034,1.671c-0.44,0.95-1.305,1.284-2.228,1.293c-2.021,0.019-4.04-0.083-6.062-0.126
		c-1.125-0.024-2.251-0.017-3.375-0.043c-2.13-0.052-4.259-0.181-6.388-0.156c-1.583,0.017-3.164,0.261-4.748,0.336
		c-1.377,0.064-2.758,0.064-4.136,0.038c-1.631-0.031-3.261-0.196-4.89-0.164c-2.167,0.043-4.331,0.236-6.498,0.33
		c-0.862,0.037-1.728-0.045-2.592-0.03c-2.098,0.033-4.194,0.095-6.292,0.133c-1.302,0.024-2.605,0.019-3.907,0.035
		c-1.667,0.019-3.334,0.037-5,0.067c-2.031,0.033-4.061,0.097-6.091,0.112c-1.304,0.011-2.606-0.044-3.91-0.054
		c-0.507-0.005-1.018,0.011-1.522,0.058c-1.081,0.105-2.144,0.269-3.247,0.052c-0.693-0.138-1.438-0.016-2.16-0.007
		c-2.32,0.026-4.64,0.054-6.959,0.077c-1.668,0.017-3.337,0.043-5.005,0.041c-1.125-0.003-2.249-0.064-3.373-0.073
		c-0.648-0.005-1.296,0.046-1.944,0.067c-0.253,0.008-0.507,0.017-0.76,0.006c-1.227-0.054-2.453-0.143-3.679-0.166
		c-1.63-0.03-3.261-0.038-4.891-0.011c-2.03,0.034-4.058,0.131-6.088,0.174c-1.85,0.038-3.701,0.031-5.553,0.057
		c-3.583,0.048-7.166,0.108-10.749,0.155c-0.398,0.006-0.797-0.056-1.195-0.062c-1-0.011-1.563-1.489-0.963-2.255
		c0.406-0.521,0.915-0.854,1.555-0.887c1.224-0.067,2.451-0.075,3.677-0.103c0.434-0.009,0.869-0.001,1.303-0.001
		C37.392,236.534,37.393,236.545,37.394,236.556z"/>
	<path fill-rule="evenodd" clip-rule="evenodd" d="M33.402,175.969c-1.176,0.183-1.906-0.15-2.31-1.089
		c-0.511-1.188,0.247-2.322,1.538-2.322c1.231,0.003,2.467,0.035,3.693-0.047c1.838-0.122,3.529,0.389,5.15,1.132
		c1.676,0.768,2.643,2.122,2.77,3.992c0.104,1.542,0.019,3.056-0.988,4.342c0.581,0.732,1.188,1.407,1.688,2.151
		c1.023,1.521,1.369,3.264,1.469,5.06c0.102,1.822,0.655,3.451,1.742,4.95c1.082,1.491,2.449,2.3,4.279,2.37
		c0.993,0.038,1.828,0.414,2.434,1.233c0.567,0.767,0.41,1.586-0.466,1.975c-1.07,0.473-2.194,0.74-3.387,0.558
		c-2.185-0.338-4.109-1.158-5.56-2.9c-0.875-1.048-1.49-2.249-1.84-3.549c-0.425-1.571-0.77-3.17-1.051-4.774
		c-0.292-1.661-0.922-3.123-2.152-4.29c-0.224-0.211-0.546-0.39-0.845-0.436c-0.602-0.091-1.218-0.08-1.877-0.115
		c-0.054,0.285-0.125,0.489-0.124,0.69c0.011,1.81,0.061,3.618,0.051,5.427c-0.01,1.887-0.066,3.773-0.119,5.66
		c-0.026,0.908-0.399,1.468-1.32,1.591c-1.213,0.163-2.456,0.225-3.678,0.164c-0.912-0.043-1.525-0.935-1.495-1.844
		c0.029-0.901,0.595-1.451,1.607-1.577c0.318-0.038,0.633-0.1,1.015-0.164C34.036,188.087,33.689,182.094,33.402,175.969z
		 M37.428,175.74c0,0.973-0.014,1.726,0.004,2.476c0.018,0.777,0.066,1.556,0.101,2.324c0.382,0,0.637,0.02,0.887-0.004
		c0.967-0.09,1.614-0.662,1.884-1.645c0.189-0.689-0.177-1.86-0.81-2.235C38.915,176.313,38.257,176.101,37.428,175.74z"/>
	<path fill-rule="evenodd" clip-rule="evenodd" d="M104.064,196.317c-1.376,1.18-3,1.519-4.628,1.409
		c-2.219-0.149-4.355-0.669-5.931-2.506c-0.892-1.042-1.152-2.276-1.201-3.534c-0.041-1.071,0.194-2.158,0.357-3.231
		c0.209-1.381,1.074-2.375,2.135-3.174c1.674-1.258,3.594-1.905,5.69-1.825c0.738,0.027,1.465,0.357,2.194,0.563
		c0.234,0.064,0.457,0.172,0.834,0.315c-0.062-3.34-0.12-6.543-0.181-9.82c-0.434-0.038-0.791-0.037-1.133-0.106
		c-0.419-0.086-0.866-0.161-1.231-0.365c-0.845-0.472-1.218-1.345-0.984-2.093c0.306-0.982,1.242-1.715,2.173-1.651
		c0.863,0.058,1.725,0.147,2.583,0.257c1.392,0.179,2.121,0.831,2.325,2.267c0.183,1.29,0.271,2.601,0.299,3.902
		c0.06,2.791,0.076,5.582,0.066,8.374c-0.007,2.173-0.083,4.347-0.123,6.521c-0.01,0.567-0.001,1.137-0.001,1.776
		c0.46,0.021,0.776,0.046,1.092,0.049c1.119,0.008,2.108,0.797,2.337,1.873c0.145,0.68-0.135,1.338-0.798,1.583
		c-0.601,0.221-1.246,0.328-1.88,0.446c-0.459,0.083-0.932,0.094-1.396,0.153c-0.834,0.107-1.595,0.041-2.116-0.748
		C104.454,196.607,104.284,196.511,104.064,196.317z M99.526,193.715c1.376-0.023,1.592-0.098,2.53-0.672
		c1.433-0.879,1.965-3.427,0.315-4.639c-1.595-1.172-4.5-0.701-5.523,0.729c-0.677,0.946-0.761,2.016-0.201,3.083
		C97.325,193.507,98.57,193.603,99.526,193.715z"/>
	<path fill-rule="evenodd" clip-rule="evenodd" d="M107.979,157.59c-0.148,1.659-0.3,3.205-0.418,4.755
		c-0.051,0.668,0.215,1.334-0.194,2.005c-0.412,0.675-0.89,1.126-1.706,1.147c-0.58,0.018-1.168,0.118-1.739,0.054
		c-0.522-0.059-1.088-0.189-1.524-0.463c-1.071-0.675-1.132-1.928-0.154-2.74c0.406-0.338,0.927-0.535,1.537-0.874
		c0.397-0.842,0.198-1.915,0.217-2.948c0.044-2.356-0.02-4.72,0-7.079c0.01-1.083,0.167-2.169,0.16-3.252
		c-0.012-1.954-0.092-3.908-0.154-5.861c-0.014-0.427-0.07-0.852-0.107-1.28c-0.357-0.109-0.637-0.176-0.902-0.281
		c-0.978-0.387-1.548-1.226-1.426-2.074c0.099-0.693,1.132-1.56,1.983-1.632c0.578-0.049,1.159-0.063,1.739-0.075
		c1.061-0.021,1.8,0.461,2.15,1.468c0.152,0.439,0.236,0.918,0.255,1.381c0.106,2.683,0.224,5.364,0.26,8.046
		c0.023,1.665-0.083,3.332-0.148,4.997c-0.031,0.798,0.17,0.954,0.95,0.689c1.095-0.373,1.775-1.155,1.997-2.25
		c0.173-0.854,0.662-1.321,1.393-1.658c1.021-0.472,1.619-0.277,2.132,0.736c0.689,1.358,0.207,2.612-0.387,3.837
		c-0.188,0.388-0.479,0.726-0.764,1.146c0.125,0.183,0.239,0.404,0.402,0.579c1.105,1.19,1.525,2.625,1.43,4.204
		c-0.071,1.176,0.274,2.012,1.397,2.542c0.768,0.362,1.08,1.176,1.28,1.938c0.197,0.756-0.625,1.425-1.561,1.364
		c-1.222-0.078-2.178-0.729-3.089-1.462c-1.39-1.118-1.818-2.668-1.852-4.354c-0.043-2.134-0.04-2.16-2.092-2.478
		C108.689,157.661,108.331,157.631,107.979,157.59z"/>
	<path fill-rule="evenodd" clip-rule="evenodd" d="M33.211,206.846c-0.266-0.121-0.581-0.223-0.852-0.394
		c-1.356-0.851-1.267-2.715,0.143-3.47c0.973-0.521,1.971-0.296,2.948-0.094c0.256,0.054,0.518,0.397,0.65,0.672
		c0.381,0.784,0.611,1.594,0.542,2.51c-0.082,1.081-0.007,2.175,0.015,3.261c0.002,0.134,0.089,0.266,0.138,0.4
		c0.809,0.236,1.374-0.161,1.847-0.678c0.811-0.884,1.301-1.913,1.169-3.16c-0.034-0.325-0.079-0.65-0.076-0.976
		c0.004-0.664,0.31-1.182,0.846-1.563c0.359-0.255,0.746-0.302,1.12-0.064c0.894,0.565,1.513,1.271,1.596,2.426
		c0.115,1.604,0.017,3.115-1.018,4.44c-0.176,0.224-0.284,0.502-0.447,0.801c0.156,0.198,0.283,0.418,0.462,0.577
		c1.323,1.193,1.811,2.744,2.012,4.452c0.226,1.918,0.142,3.828,0.043,5.748c-0.051,0.986,0.286,1.933,0.932,2.723
		c0.459,0.561,0.965,1.083,1.414,1.653c0.695,0.881,0.478,1.647-0.568,2.046c-0.946,0.361-1.804,0.179-2.488-0.561
		c-1.013-1.096-1.955-2.26-2.48-3.676c-0.224-0.603-0.358-1.264-0.386-1.906c-0.046-1.048,0.015-2.103,0.055-3.153
		c0.052-1.386-0.039-2.753-0.451-4.082c-0.33-1.062-0.609-1.267-1.708-1.305c-0.435-0.015-0.871-0.001-1.306,0.008
		c-0.106,0.002-0.211,0.039-0.465,0.089c-0.027,1.415-0.06,2.855-0.083,4.295c-0.039,2.466-0.063,4.931-0.113,7.396
		c-0.012,0.611-0.843,1.379-1.562,1.447c-0.755,0.071-1.517,0.079-2.275,0.112c-0.072,0.005-0.146-0.009-0.218-0.016
		c-0.888-0.089-1.526-0.608-1.636-1.337c-0.102-0.675,0.495-1.594,1.242-1.868c0.334-0.121,0.688-0.189,1.12-0.307
		C33.37,217.789,33.813,212.327,33.211,206.846z"/>
	<path fill-rule="evenodd" clip-rule="evenodd" d="M75.45,187.636c0.331-0.807,0.023-1.577-0.467-2.258
		c-0.174-0.241-0.616-0.414-0.929-0.403c-0.605,0.02-1.233,0.113-1.8,0.32c-1.019,0.371-1.912,0.126-2.809-0.34
		c-0.606-0.316-1.001-0.813-0.917-1.473c0.091-0.725,0.392-1.437,1.164-1.719c1.707-0.624,3.482-0.632,5.263-0.47
		c0.279,0.025,0.568,0.152,0.813,0.297c2.35,1.393,3.947,3.255,3.952,6.173c0.003,1.701,0.109,3.402,0.177,5.103
		c0.01,0.248,0.073,0.494,0.119,0.784c0.279,0.021,0.525,0.06,0.771,0.054c1.023-0.019,1.988,0.721,2.208,1.707
		c0.14,0.629-0.163,1.165-0.777,1.492c-1.543,0.818-3.131,0.836-4.732,0.25c-0.599-0.22-1.062-0.152-1.628,0.14
		c-0.632,0.325-1.355,0.543-2.061,0.644c-2.123,0.301-4.204,0.09-6.166-0.833c-1.929-0.907-3.089-2.771-2.894-4.901
		c0.146-1.604,0.67-3.088,1.918-4.257c1.654-1.551,3.612-1.769,5.682-1.355C73.381,186.799,74.375,187.265,75.45,187.636z
		 M71.92,194.534c0.683-0.188,1.487-0.237,2.099-0.606c1.319-0.796,1.45-2.43,0.077-3.079c-0.325-0.153-0.645-0.325-0.946-0.52
		c-0.792-0.511-1.667-0.46-2.517-0.304c-1.52,0.276-2.431,1.887-1.898,3.311c0.086,0.228,0.351,0.477,0.584,0.546
		C70.141,194.131,70.984,194.307,71.92,194.534z"/>
	<path fill-rule="evenodd" clip-rule="evenodd" d="M35.967,153.534c0.061,3.877,0.104,7.672-0.081,11.491
		c-1.38,0.291-2.612,0.515-3.882,0.445c-0.072-0.004-0.142-0.025-0.213-0.04c-0.957-0.205-1.638-0.838-1.709-1.593
		c-0.068-0.719,0.611-1.697,1.418-2.009c0.267-0.104,0.552-0.157,0.816-0.23c0.42-2.288-0.035-15.412-0.632-18.255
		c-0.237-0.042-0.489-0.071-0.732-0.132c-0.929-0.229-1.658-1.032-1.642-1.792c0.016-0.703,0.835-1.708,1.677-1.796
		c1.904-0.2,3.781-0.686,5.725-0.521c1.895,0.161,3.439,0.975,4.831,2.237c1.218,1.107,1.86,2.512,2.172,4.039
		c0.476,2.347-0.414,4.345-1.949,6.078c-0.789,0.89-1.866,1.393-2.946,1.801c-0.552,0.21-1.211,0.132-1.822,0.183
		C36.711,153.466,36.424,153.494,35.967,153.534z M35.819,149.498c0.342,0,0.623,0.001,0.905,0c1.377-0.011,2.444-0.556,3.04-1.839
		c0.5-1.08,0.171-2.877-0.663-3.751c-0.12-0.126-0.282-0.237-0.445-0.293c-1.023-0.347-2.073-0.486-3.227-0.438
		C35.268,145.333,35.533,147.388,35.819,149.498z"/>
	<path fill-rule="evenodd" clip-rule="evenodd" d="M100.999,219.087c0.795-1.693,1.721-3.038,2.042-4.685
		c0.093-0.477,0.549-0.926,0.931-1.293c0.321-0.309,0.781-0.4,1.187-0.048c0.325,0.28,0.735,0.519,0.94,0.873
		c0.505,0.871,0.938,1.786,1.354,2.704c0.368,0.814,0.677,1.654,1.112,2.73c0.718-1.965,1.394-3.655,1.938-5.386
		c0.217-0.686,0.643-1.128,1.148-1.51c0.55-0.415,0.934-0.343,1.452,0.149c0.288,0.274,0.576,0.571,0.773,0.911
		c0.251,0.43,0.397,0.871,0.176,1.43c-0.929,2.357-1.797,4.736-2.683,7.109c-0.431,1.152-0.828,2.319-1.279,3.466
		c-0.26,0.661-0.668,0.886-1.378,0.78c-0.425-0.062-0.891-0.139-1.237-0.365c-0.331-0.217-0.757-0.643-0.745-0.962
		c0.037-0.999-0.426-1.825-0.725-2.701c-0.346-1.014-0.807-1.986-1.244-3.039c-0.165,0.152-0.277,0.206-0.31,0.292
		c-0.667,1.752-1.336,3.503-1.979,5.265c-0.303,0.831-1.18,1.314-2.113,1.021c-0.785-0.249-1.299-0.711-1.529-1.63
		c-0.624-2.493-1.394-4.948-2.113-7.416c-0.19-0.65-0.619-1.031-1.31-1.131c-0.625-0.089-1.176-0.299-1.496-0.937
		c-0.563-1.122,0.065-2.372,1.312-2.522c0.609-0.074,1.226-0.177,1.833-0.148c0.36,0.017,0.767,0.186,1.054,0.413
		c0.857,0.679,1.238,1.657,1.556,2.673C100.054,216.371,100.493,217.597,100.999,219.087z"/>
	<path fill-rule="evenodd" clip-rule="evenodd" d="M63.222,222.589c1.253,0.096,1.678,1.027,2.103,1.89
		c0.272,0.554,0.024,1.19-0.586,1.315c-1.194,0.246-2.431,0.443-3.638,0.392c-0.522-0.021-1.016-0.714-1.507-1.09
		c-0.846,0.215-1.76,0.573-2.699,0.659c-1.811,0.164-3.439-0.384-4.756-1.69c-0.427-0.422-0.921-0.75-1.12-1.415
		c-0.502-1.677,0.103-3.105,1.006-4.377c1.565-2.197,3.822-2.163,6.163-1.594c0.273,0.067,0.538,0.17,0.808,0.256
		c0.243-0.82,0.295-1.67-0.308-2.188c-0.571-0.489-1.295-0.044-1.936,0.217c-0.327,0.133-0.699,0.208-1.051,0.21
		c-0.918,0.004-1.579-0.474-1.836-1.26c-0.224-0.68,0.112-1.658,0.801-2.098c2.258-1.441,5.712-1.523,7.48,1.512
		c0.423,0.726,0.658,1.634,0.726,2.479c0.148,1.83,0.125,3.674,0.188,5.512C63.073,221.71,63.157,222.103,63.222,222.589z
		 M54.545,221.578c0.473,0.175,0.873,0.331,1.278,0.471c0.729,0.25,1.365-0.017,1.941-0.422c0.439-0.312,0.417-1.012,0.002-1.319
		C56.664,219.49,54.976,220.09,54.545,221.578z"/>
	<path fill-rule="evenodd" clip-rule="evenodd" d="M144.64,181.557c1.536-0.027,2.918,0.523,4.292,1.073
		c1.163,0.464,1.723,1.546,2.299,2.528c1.655,2.825,1.352,6.811-1.472,9.438c-0.89,0.831-1.993,1.132-3.164,1.279
		c-2.17,0.277-4.247-0.032-6.26-0.886c-0.902-0.383-1.569-0.952-2.08-1.807c-0.968-1.617-1.425-3.325-1.15-5.19
		c0.261-1.78,1.04-3.344,2.409-4.499c0.818-0.689,1.797-1.25,2.79-1.65C143.007,181.559,143.854,181.64,144.64,181.557z
		 M141.024,189.391c-0.021,1.35,0.227,1.785,1.294,2.229c1.317,0.547,2.687,0.65,4.029,0.212c0.547-0.177,1.108-0.594,1.454-1.059
		c0.874-1.18,0.742-2.936-0.176-4.044c-0.85-1.025-2.879-1.56-4.074-1.073C142.044,186.268,141.049,187.74,141.024,189.391z"/>
	<path fill-rule="evenodd" clip-rule="evenodd" d="M144.483,157.671c0.152,1.614,1.798,2.852,3.229,2.527
		c0.852-0.191,1.679-0.447,2.35-1.055c0.494-0.447,1.077-0.668,1.688-0.298c0.713,0.43,1.171,1.099,1.234,1.935
		c0.02,0.268-0.211,0.618-0.428,0.828c-1.418,1.373-3.179,2.06-5.105,2.102c-1.392,0.029-2.635-0.698-3.861-1.333
		c-2.38-1.226-3.343-4.177-2.969-6.493c0.244-1.508,0.515-3.016,1.446-4.28c1.648-2.24,3.755-3.281,6.649-2.977
		c2.554,0.271,3.492,2.052,4.394,3.945c0.238,0.499,0.077,1.207,0.029,1.814c-0.026,0.352-0.269,0.69-0.282,1.041
		c-0.043,1.142-0.804,1.561-1.737,1.781c-1.343,0.316-2.69,0.48-4.09,0.312C146.227,157.424,145.388,157.609,144.483,157.671z
		 M145.479,153.646c0.51,0.056,0.937,0.105,1.362,0.148c0.539,0.056,1.079,0.149,1.618,0.146c0.75-0.008,1.031-0.551,0.611-1.175
		c-0.149-0.22-0.401-0.414-0.648-0.518C147.416,151.826,146.194,152.403,145.479,153.646z"/>
	<path fill-rule="evenodd" clip-rule="evenodd" d="M109.786,66.308c0.529-0.122,1.078-0.312,1.642-0.37
		c2.317-0.238,4.626-0.091,6.925,0.23c3.192,0.447,6.364,1.041,9.442,1.974c1.963,0.595,3.834,1.505,5.715,2.347
		c1.893,0.847,3.294,2.349,4.729,3.784c0.613,0.614,1.215,1.25,1.739,1.939c0.555,0.727,0.896,1.578,0.894,2.509
		c-0.001,0.298-0.137,0.637-0.313,0.885c-0.402,0.567-2.089,1.009-2.735,0.722c-0.237-0.106-0.512-0.315-0.601-0.543
		c-0.83-2.125-2.457-3.62-4.211-4.872c-2.639-1.882-5.599-3.172-8.809-3.811c-2.412-0.479-4.81-1.047-7.236-1.436
		c-1.996-0.32-4.019-0.529-6.056-0.251c-1.227,0.167-1.793-0.522-1.495-1.758C109.519,67.239,109.644,66.826,109.786,66.308z"/>
	<path fill-rule="evenodd" clip-rule="evenodd" d="M71.561,208.677c0.384-1.142-0.024-2.197-0.052-3.286
		c-0.266-0.122-0.495-0.218-0.714-0.331c-1.233-0.642-1.504-1.975-0.576-2.999c0.202-0.223,0.552-0.438,0.833-0.436
		c0.683,0.007,1.376,0.092,2.042,0.249c0.318,0.076,0.633,0.343,0.858,0.604c0.993,1.147,1.329,2.546,1.446,4.017
		c0.04,0.498,0.067,0.998,0.108,1.623c0.411-0.094,0.727-0.13,1.014-0.24c0.67-0.256,1.172-0.054,1.66,0.434
		c0.729,0.729,0.616,1.639,0.434,2.453c-0.168,0.752-0.938,0.93-1.663,0.97c-0.46,0.027-0.922,0.049-1.471,0.077
		c-0.164,3.825-0.324,7.569-0.474,11.088c0.709,0.641,1.31,1.088,1.789,1.641c0.777,0.898,0.488,1.909-0.649,2.165
		c-1.055,0.237-2.147,0.347-3.229,0.411c-0.74,0.043-1.472-0.788-1.476-1.597c-0.006-1.373,0.032-2.747,0.063-4.117
		c0.063-2.753,0.135-5.505,0.198-8.256c0.004-0.176-0.035-0.354-0.065-0.646c-0.468-0.029-0.929-0.034-1.383-0.094
		c-0.462-0.061-0.953-0.093-1.371-0.275c-1.239-0.54-1.534-2.165-0.548-3.081c0.254-0.237,0.708-0.328,1.079-0.356
		C70.123,208.638,70.84,208.677,71.561,208.677z"/>
	<path fill-rule="evenodd" clip-rule="evenodd" d="M68.787,142.075c-0.418-0.151-0.833-0.278-1.229-0.449
		c-0.877-0.374-1.379-1.137-1.238-1.833c0.151-0.741,1.21-1.563,2.015-1.559c0.58,0.006,1.16,0.027,1.739,0.024
		c1.593-0.006,2.595,1.075,2.665,2.583c0.171,3.654,0.229,7.316,0.253,10.976c0.017,2.574-0.094,5.149-0.145,7.725
		c-0.007,0.357-0.001,0.715-0.001,1.117c1.115,0.048,1.801,0.711,2.419,1.417c0.675,0.771,0.375,1.994-0.614,2.18
		c-1.3,0.244-2.629,0.503-3.98,0.218c-0.815-0.172-1.291-0.635-1.445-1.424c-0.11-0.565-0.232-1.146-0.227-1.717
		c0.027-3.157,0.106-6.313,0.139-9.468c0.02-1.92,0.029-3.841-0.031-5.76C69.065,144.769,68.899,143.437,68.787,142.075z"/>
	<path fill-rule="evenodd" clip-rule="evenodd" d="M89.018,165.753c-0.579-0.186-1.385-0.393-2.147-0.704
		c-0.495-0.204-0.878-0.292-1.243,0.183c-0.255,0.333-0.586,0.364-0.973,0.21c-0.368-0.148-0.761-0.231-1.135-0.366
		c-0.718-0.258-1.118-0.741-1.135-1.543c-0.025-1.223-0.073-2.445-0.149-3.668c-0.061-0.976,1.097-1.983,1.769-2.094
		c0.475-0.078,0.89,0.053,1.152,0.44c0.34,0.506,0.699,1.024,0.902,1.591c0.433,1.199,1.401,1.922,2.432,2.344
		c1.055,0.432,1.64,0.162,1.801-1.104c0.14-1.108-0.268-1.934-1.089-2.68c-1.517-1.376-1.973-3.149-1.304-5.05
		c1.082-3.072,5.172-4.003,7.609-2.104c0.67,0.524,0.908,2.327,0.423,2.911c-0.573,0.685-1.766,0.733-2.67,0.104
		c-0.563-0.392-0.943-0.39-1.331,0.003c-0.511,0.519-0.621,1.281-0.162,1.741c0.807,0.807,1.479,1.693,1.901,2.754
		c0.654,1.646,0.552,3.296-0.27,4.827C92.536,165.153,90.956,165.581,89.018,165.753z"/>
	<path fill-rule="evenodd" clip-rule="evenodd" d="M148.098,211.604c1.953,0.001,3.176,1.135,4.144,2.621
		c0.309,0.477,0.5,1.049,0.658,1.601c0.335,1.157-0.067,1.804-1.134,2.315c-1.529,0.734-3.117,1.183-4.804,1.215
		c-0.664,0.011-0.888,0.396-1.042,0.903c-0.122,0.406,0.199,1.067,0.654,1.239c0.751,0.285,1.526,0.491,2.311,0.075
		c0.607-0.321,1.229-0.617,1.814-0.973c0.561-0.342,1.081-0.324,1.615,0.019c0.03,0.019,0.059,0.043,0.088,0.064
		c1.677,1.215,1.798,2.33-0.053,3.37c-0.189,0.107-0.373,0.224-0.566,0.325c-1.095,0.567-2.192,1.242-3.478,1.035
		c-1.876-0.302-3.663-0.857-5.051-2.296c-1.361-1.408-1.929-4.148-1.187-5.961c0.246-0.604,0.489-1.209,0.729-1.815
		c0.703-1.778,1.959-2.923,3.835-3.363C147.123,211.862,147.609,211.729,148.098,211.604z M146.101,216.549
		c0.366,0.144,0.766,0.447,1.134,0.412c0.66-0.063,1.346-0.242,1.936-0.54c0.472-0.238,0.446-0.819,0.071-1.089
		C148.438,214.763,146.488,215.034,146.101,216.549z"/>
	<path fill-rule="evenodd" clip-rule="evenodd" d="M61.06,157.953c0.033,3.072-1.485,5.634-4.374,6.753
		c-0.676,0.262-1.383,0.43-2.115,0.208c-0.966-0.291-1.944-0.554-2.894-0.893c-2.083-0.741-3.9-3.31-3.171-6.565
		c0.465-2.08,1.621-3.733,3.632-4.603c1.2-0.519,2.479-0.789,3.793-0.349c0.137,0.046,0.284,0.143,0.413,0.124
		c1.792-0.278,2.614,1.069,3.445,2.198C60.479,155.766,61.184,156.798,61.06,157.953z M54.952,161.429
		c0.084-0.02,0.382-0.032,0.636-0.146c1.42-0.635,2.214-2.979,1.442-4.307c-0.271-0.467-0.614-0.889-1.307-0.681
		c-0.333,0.1-0.721,0.078-1.076,0.038c-1.001-0.114-1.267-0.021-1.737,0.829c-0.171,0.308-0.219,0.682-0.37,1.002
		C51.765,159.832,52.859,161.294,54.952,161.429z"/>
	<path fill-rule="evenodd" clip-rule="evenodd" d="M92.223,219.74c-0.046,1.827-0.726,3.367-2.058,4.629
		c-0.777,0.738-1.755,1.013-2.754,1.188c-1.84,0.319-3.624,0.18-5.191-0.965c-0.368-0.27-0.729-0.621-0.942-1.017
		c-0.971-1.788-1.516-3.695-1.109-5.735c0.121-0.607,0.521-1.183,0.883-1.712c0.486-0.71,1.038-1.378,1.601-2.03
		c0.886-1.028,2.137-1.475,3.389-1.453c1.193,0.021,2.386,0.461,3.563,0.781c0.281,0.076,0.563,0.362,0.726,0.626
		C91.399,215.796,92.262,217.617,92.223,219.74z M88.788,219.224c-0.231-0.674-0.41-1.37-0.705-2.014
		c-0.434-0.941-1.601-1.3-2.458-0.749c-1.529,0.983-2.544,2.552-1.539,4.513c0.361,0.703,0.851,1.044,1.584,1.089
		C87.458,222.167,88.628,221.063,88.788,219.224z"/>
	<path fill-rule="evenodd" clip-rule="evenodd" d="M134.961,225.29c-1.925-0.153-3.82-0.483-5.231-2.111
		c-1.767-2.038-2.142-4.671-0.898-7.094c0.701-1.365,1.505-2.665,3.049-3.261c1.537-0.591,3.04-0.623,4.479,0.276
		c0.756,0.473,1.267,1.17,1.579,1.991c0.388,1.02-0.461,2.04-1.539,1.854c-0.386-0.066-0.765-0.227-1.118-0.403
		c-0.901-0.447-1.74-0.355-2.45,0.312c-1.121,1.051-1.336,2.97-0.411,4.178c0.193,0.254,0.593,0.456,0.914,0.482
		c0.789,0.064,1.594,0.063,2.382-0.005c0.995-0.086,2.411,0.94,2.538,1.916c0.091,0.718-0.286,1.274-1.086,1.548
		c-0.307,0.105-0.629,0.178-0.952,0.222C135.824,225.248,135.423,225.258,134.961,225.29z"/>
	<path fill-rule="evenodd" clip-rule="evenodd" d="M126.72,153.568c-0.336-0.146-0.6-0.257-0.859-0.378
		c-0.969-0.449-1.379-1.141-1.161-1.952c0.229-0.851,1.275-1.585,2.148-1.512c0.432,0.034,0.865,0.076,1.298,0.088
		c1.48,0.038,2.498,1.006,2.494,2.505c-0.003,1.4-0.167,2.8-0.166,4.198c0,1.221,0.133,2.44,0.208,3.677
		c0.1,0.021,0.215,0.085,0.303,0.06c1.301-0.39,2.06,0.472,2.781,1.273c0.667,0.742,0.211,1.997-0.793,2.239
		c-0.628,0.151-1.291,0.188-1.94,0.212c-0.906,0.038-1.821,0.089-2.719,0c-1.595-0.157-2.084-1.083-1.795-2.651
		c0.213-1.159,0.275-2.401,0.103-3.56c-0.176-1.18,0.127-2.304,0.052-3.452C126.659,154.102,126.698,153.886,126.72,153.568z"/>
	<path fill-rule="evenodd" clip-rule="evenodd" d="M121.218,188.103c-0.346-0.053-0.558-0.082-0.768-0.117
		c-0.984-0.167-1.771-0.969-1.834-1.869c-0.062-0.87,0.534-1.812,1.491-2.028c1.082-0.246,2.202-0.36,3.311-0.419
		c0.331-0.018,0.747,0.276,1.009,0.54c0.6,0.606,0.99,1.339,0.963,2.233c-0.045,1.518-0.109,3.033-0.125,4.551
		c-0.008,0.681,0.076,1.365,0.125,2.137c0.938,0.051,1.571,0.594,2.1,1.312c0.848,1.147,0.495,2.203-0.886,2.523
		c-1.367,0.318-2.74,0.212-4.097-0.072c-0.614-0.127-1.229-1.164-1.23-1.885c-0.002-1.189-0.044-2.378-0.056-3.569
		C121.21,190.358,121.218,189.278,121.218,188.103z"/>
	<path fill-rule="evenodd" clip-rule="evenodd" d="M122.739,221.777c1.313-0.304,1.812,0.771,2.476,1.528
		c0.45,0.513,0.321,1.188-0.202,1.638c-0.135,0.115-0.295,0.247-0.46,0.274c-1.564,0.258-3.131,0.529-4.684-0.061
		c-0.52-0.197-0.861-0.544-0.866-1.125c-0.014-1.333-0.011-2.666-0.015-3.999c-0.003-1.083-0.005-2.168-0.008-3.252
		c-0.002-0.425-0.132-0.713-0.56-0.945c-0.814-0.441-1.085-1.17-0.841-1.898c0.288-0.86,0.995-1.373,1.88-1.339
		c0.712,0.027,1.434-0.032,2.024,0.543c0.691,0.672,1.263,1.278,1.048,2.422c-0.176,0.936,0.023,1.941,0.063,2.916
		C122.636,219.552,122.688,220.624,122.739,221.777z"/>
	<path fill-rule="evenodd" clip-rule="evenodd" d="M123.729,171.409c0.562-0.064,0.923,0.214,1.154,0.665
		c0.329,0.643,0.616,1.304,0.938,1.948c0.305,0.613,0.15,1.149-0.298,1.586c-1.028,1.003-3.419,1.19-4.132-0.589
		c-0.281-0.701-0.327-1.292,0.083-1.945C122.016,172.211,122.688,171.563,123.729,171.409z"/>
	<path fill-rule="evenodd" clip-rule="evenodd" d="M123.076,205.874c-0.045,1.492-1.407,2.539-2.657,2.21
		c-0.889-0.234-1.739-0.543-2.1-1.529c-0.214-0.588-0.24-1.125,0.191-1.632c0.281-0.33,0.521-0.698,0.809-1.023
		c0.738-0.836,1.692-0.834,2.432-0.002c0.313,0.353,0.635,0.703,0.895,1.093C122.86,205.31,122.988,205.688,123.076,205.874z"/>
	<path fill-rule="evenodd" clip-rule="evenodd" d="M128.433,142.852c-1.615-0.032-2.648-0.813-2.617-1.98
		c0.032-1.246,1.357-2.545,2.474-2.596c0.924-0.041,2.166,1.58,2.121,2.421C130.348,141.902,129.497,142.873,128.433,142.852z"/>
	<path fill-rule="evenodd" clip-rule="evenodd" d="M190.957,189.343c-0.562,0.069-1.029-0.235-1.408-0.718
		c-0.924-1.175-0.729-2.784,0.45-3.747c0.112-0.091,0.216-0.191,0.322-0.29c0.969-0.879,1.979-0.727,2.512,0.457
		c0.211,0.471,0.253,1.046,0.258,1.572c0.004,0.425-0.153,0.851-0.254,1.272C192.577,188.981,192.132,189.337,190.957,189.343z"/>
	<path fill-rule="evenodd" clip-rule="evenodd" d="M194.147,98.307c0.084,2.693-1.19,4.794-2.866,6.661
		c-2.593,2.887-5.962,3.766-9.735,3.562c-2.163-0.116-3.955-1.123-5.735-2.167c-0.511-0.3-0.912-0.833-1.276-1.324
		c-0.95-1.277-1.832-2.563-2.043-4.243c-0.264-2.106-0.501-4.202,0.223-6.235c0.873-2.451,2.024-4.708,4.584-5.904
		c1.518-0.709,2.996-1.481,4.7-1.608c1.949-0.145,3.789,0.235,5.597,1.009c3.194,1.369,4.884,4.012,6.067,7.044
		C194.045,96.083,193.997,97.233,194.147,98.307z"/>
</g>
</svg>
